<svg width="79" height="80" viewBox="0 0 79 80" fill="none" xmlns="http://www.w3.org/2000/svg">
<g clip-path="url(#clip0_16_119)">
<path d="M39.1267 79.3763C60.7358 79.3763 78.2534 61.6073 78.2534 39.6881C78.2534 17.769 60.7358 0 39.1267 0C17.5176 0 0 17.769 0 39.6881C0 61.6073 17.5176 79.3763 39.1267 79.3763Z" fill="#00BFA6"/>
<path d="M55.6408 58.3799H23.2216C22.6288 58.3793 22.0604 58.1401 21.6412 57.7149C21.2221 57.2898 20.9863 56.7133 20.9857 56.112V36.2679C20.9864 35.6666 21.2221 35.0901 21.6413 34.665C22.0605 34.2398 22.6288 34.0006 23.2216 34H55.6408C56.2336 34.0006 56.8019 34.2398 57.2211 34.665C57.6402 35.0901 57.876 35.6666 57.8766 36.2679V56.1119C57.876 56.7132 57.6403 57.2898 57.2211 57.7149C56.8019 58.1401 56.2336 58.3793 55.6408 58.3799ZM23.2216 36.2679V56.112H55.6424L55.6408 36.2679L23.2216 36.2679Z" fill="white"/>
<path d="M55.6408 58.3799H23.2216C22.6288 58.3793 22.0604 58.1401 21.6412 57.7149C21.2221 57.2898 20.9863 56.7133 20.9857 56.112V36.2679C20.9864 35.6666 21.2221 35.0901 21.6413 34.665C22.0605 34.2398 22.6288 34.0006 23.2216 34H55.6408C56.2336 34.0006 56.8019 34.2398 57.2211 34.665C57.6402 35.0901 57.876 35.6666 57.8766 36.2679V56.1119C57.876 56.7132 57.6403 57.2898 57.2211 57.7149C56.8019 58.1401 56.2336 58.3793 55.6408 58.3799ZM23.2216 36.2679V56.112H55.6424L55.6408 36.2679L23.2216 36.2679Z" fill="white"/>
<path d="M49.1878 34.8689H29.0655V25.7973C29.0655 19.2267 33.297 14.4578 39.1267 14.4578C44.9564 14.4578 49.1878 19.2267 49.1878 25.7973L49.1878 34.8689ZM31.3013 32.601H46.952V25.7973C46.952 20.4562 43.7342 16.7257 39.1267 16.7257C34.5192 16.7257 31.3014 20.4562 31.3014 25.7973L31.3013 32.601Z" fill="white"/>
<path d="M49.1878 34.8689H29.0655V25.7973C29.0655 19.2267 33.297 14.4578 39.1267 14.4578C44.9564 14.4578 49.1878 19.2267 49.1878 25.7973L49.1878 34.8689ZM31.3013 32.601H46.952V25.7973C46.952 20.4562 43.7342 16.7257 39.1267 16.7257C34.5192 16.7257 31.3014 20.4562 31.3014 25.7973L31.3013 32.601Z" fill="white"/>
<path d="M39.1267 46.4918C40.3615 46.4918 41.3625 45.4764 41.3625 44.2239C41.3625 42.9714 40.3615 41.956 39.1267 41.956C37.8919 41.956 36.8909 42.9714 36.8909 44.2239C36.8909 45.4764 37.8919 46.4918 39.1267 46.4918Z" fill="white"/>
</g>
<defs>
<clipPath id="clip0_16_119">
<rect width="79" height="80" fill="white"/>
</clipPath>
</defs>
</svg>
